<svg width="100px" height="100px" viewBox="0 0 100 100" version="1.1" xmlns="http://www.w3.org/2000/svg" xmlns:xlink="http://www.w3.org/1999/xlink">
    <defs>
        <linearGradient x1="22.2871094%" y1="17.3261719%" x2="97.6181641%" y2="97.1835938%" id="linearGradient-1">
            <stop stop-color="#E5422B" offset="0%"></stop>
            <stop stop-color="#754796" offset="73.599775%"></stop>
            <stop stop-color="#184CEF" offset="100%"></stop>
        </linearGradient>
    </defs>
    <g id="Page-1" stroke="none" stroke-width="1" fill="none" fill-rule="evenodd">
        <rect id="Rectangle" fill="url(#linearGradient-1)" x="0" y="0" width="100" height="100" rx="4"></rect>
        <path d="M33.795166,37.9077148 L19.8425293,37.9077148 L19.8425293,44.9829102 L32.5427246,44.9829102 L32.5427246,50.6958008 L19.8425293,50.6958008 L19.8425293,65 L13.3605957,65 L13.3605957,32.1948242 L33.795166,32.1948242 L33.795166,37.9077148 Z M49.9890137,38.1274414 L46.9348145,51.5527344 L53.0651855,51.5527344 L49.9890137,38.1274414 Z M46.0339355,32.1948242 L53.9660645,32.1948242 L62.8210449,65 L56.3391113,65 L54.317627,56.8920898 L45.6384277,56.8920898 L43.6608887,65 L37.1789551,65 L46.0339355,32.1948242 Z M72.5549316,50.1025391 L72.5549316,59.8144531 L76.8615723,59.8144531 C78.9270123,59.8144531 80.373531,59.4628941 81.2011719,58.7597656 C82.0288127,58.0566371 82.442627,56.8335048 82.442627,55.090332 C82.442627,53.3178622 82.0105024,52.0434609 81.1462402,51.2670898 C80.2819781,50.4907188 78.8537697,50.1025391 76.8615723,50.1025391 L72.5549316,50.1025391 Z M72.5549316,37.3144531 L72.5549316,44.9389648 L76.8615723,44.9389648 C78.5022055,44.9389648 79.6704067,44.645999 80.3662109,44.0600586 C81.0620152,43.4741182 81.4099121,42.507331 81.4099121,41.159668 C81.4099121,39.812005 81.0546911,38.8342316 80.3442383,38.2263184 C79.6337855,37.6184052 78.4729084,37.3144531 76.8615723,37.3144531 L72.5549316,37.3144531 Z M66.2927246,32.1508789 L76.8615723,32.1508789 C80.5090514,32.1508789 83.2519439,32.8430107 85.090332,34.2272949 C86.9287201,35.6115792 87.8479004,37.6806503 87.8479004,40.4345703 C87.8479004,42.5439559 87.3059136,44.1918886 86.2219238,45.378418 C85.137934,46.5649473 83.5485945,47.253417 81.4538574,47.4438477 C83.9587528,47.6928723 85.8447202,48.5351491 87.1118164,49.9707031 C88.3789126,51.4062572 89.0124512,53.413073 89.0124512,55.9912109 C89.0124512,59.1552893 88.0603123,61.4477468 86.1560059,62.8686523 C84.2516995,64.2895579 81.1535859,65 76.8615723,65 L66.2927246,65 L66.2927246,32.1508789 Z" id="FAB" fill="#FFFFFF" fill-rule="nonzero"></path>
    </g>
</svg>